name C:\Users\u0101727\Documents\MyRepositories\paper-ad\predictivesimulations_2d/Results/PredSim_2D/IK_c17.mot
datacolumns 11
datarows 51
range 0.00000000 0.47968032
endheader
time	pelvis_tilt	pelvis_tx	pelvis_ty	hip_flexion_l	hip_flexion_r	knee_angle_l	knee_angle_r	ankle_angle_l	ankle_angle_r	lumbar_extension	
          0.00000000	        -15.17240489	          0.00000000	          0.88360415	          0.99451040	         38.10300098	        -16.23267787	        -10.56466133	          5.76398031	         13.84224218	          9.68467141	
          0.00959361	        -15.13435906	          0.01477767	          0.88281691	          0.90069613	         37.61851363	        -17.72607602	         -9.95940499	          4.56366599	         13.39414274	          9.78154772	
          0.01918721	        -15.08526919	          0.02981881	          0.88197860	          0.88562471	         37.03885511	        -19.38697609	         -9.64021609	          3.25957266	         12.89393672	          9.89146917	
          0.02878082	        -15.02769315	          0.04510637	          0.88111263	          0.95653181	         36.29594489	        -21.21227262	         -9.72768731	          1.83174764	         12.33955683	         10.01841127	
          0.03837443	        -14.96984252	          0.06045449	          0.88034595	          1.11805484	         35.43291916	        -23.18340236	        -10.04208921	          0.36557723	         11.77035075	         10.15294531	
          0.04796803	        -14.92269233	          0.07552242	          0.87990817	          1.39704077	         34.57497933	        -25.20790220	        -10.32243584	         -0.91752167	         11.22026568	         10.27182752	
          0.05756164	        -14.89480381	          0.09006310	          0.88006120	          1.82174987	         33.75938467	        -27.14554552	        -10.58089055	         -1.91959179	         10.68916788	         10.36114804	
          0.06715524	        -14.88851341	          0.10401359	          0.88096093	          2.38808578	         32.98858722	        -28.93371287	        -10.81233174	         -2.66996430	         10.19169735	         10.41976601	
          0.07674885	        -14.89912821	          0.11745717	          0.88256647	          3.07926226	         32.24405571	        -30.59313625	        -11.00476887	         -3.17805373	          9.74414012	         10.45382214	
          0.08634246	        -14.92005611	          0.13051808	          0.88466794	          3.87473837	         31.50466911	        -32.15293356	        -11.14927060	         -3.45660496	          9.35798305	         10.47033912	
          0.09593606	        -14.94593487	          0.14330376	          0.88703266	          4.75896050	         30.75362072	        -33.63068845	        -11.23901325	         -3.52119718	          9.03949737	         10.47462808	
          0.10552967	        -14.97332799	          0.15588846	          0.88947788	          5.71990869	         29.98146978	        -35.03486281	        -11.27208413	         -3.38685694	          8.79030573	         10.46988244	
          0.11512328	        -15.00034132	          0.16831913	          0.89187996	          6.74857818	         29.18369696	        -36.36677321	        -11.24892862	         -3.06987740	          8.60936523	         10.45785739	
          0.12471688	        -15.02601251	          0.18062583	          0.89415969	          7.83756642	         28.35875362	        -37.62332169	        -11.17154824	         -2.58698906	          8.49402868	         10.43956161	
          0.13431049	        -15.04985278	          0.19282885	          0.89626666	          8.98069554	         27.50701537	        -38.79962586	        -11.04342659	         -1.95505841	          8.44054993	         10.41561184	
          0.14390410	        -15.07159385	          0.20494329	          0.89816845	         10.17241474	         26.63013819	        -39.88958800	        -10.86942237	         -1.19104466	          8.44437121	         10.38645915	
          0.15349770	        -15.09106390	          0.21698155	          0.89984408	         11.40737092	         25.73071599	        -40.88643364	        -10.65555716	         -0.31212588	          8.50034392	         10.35251088	
          0.16309131	        -15.10813749	          0.22895455	          0.90128093	         12.68012860	         24.81204588	        -41.78299823	        -10.40885996	          0.66430210	          8.60287955	         10.31418390	
          0.17268491	        -15.12272693	          0.24087174	          0.90247412	         13.98535075	         23.87811630	        -42.57166716	        -10.13734006	          1.72067770	          8.74616299	         10.27186693	
          0.18227852	        -15.13481946	          0.25274076	          0.90342695	         15.31800926	         22.93335102	        -43.24429523	         -9.84877978	          2.83934018	          8.92431299	         10.22588285	
          0.19187213	        -15.14453925	          0.26456890	          0.90415005	         16.67211042	         21.98163058	        -43.79336751	         -9.55022575	          4.00248877	          9.13081033	         10.17670890	
          0.20146573	        -15.15204864	          0.27636238	          0.90466045	         18.04185548	         21.02715023	        -44.21116801	         -9.24925945	          5.19228604	          9.35796594	         10.12476901	
          0.21105934	        -15.15748946	          0.28812671	          0.90497894	         19.42174845	         20.07448212	        -44.48989060	         -8.95373121	          6.39090999	          9.59774678	         10.07040587	
          0.22065295	        -15.16100754	          0.29986788	          0.90512699	         20.80528891	         19.12842899	        -44.62260394	         -8.67202406	          7.58055583	          9.84222648	         10.01399851	
          0.23024655	        -15.16282466	          0.31159292	          0.90512490	         22.18557726	         18.19220117	        -44.60366237	         -8.40970286	          8.74354295	         10.08410253	          9.95608032	
          0.23984016	        -15.16325907	          0.32331017	          0.90499078	         23.55571904	         17.26659595	        -44.42902847	         -8.16803955	          9.86249801	         10.31675374	          9.89739481	
          0.24943376	        -15.16259245	          0.33502837	          0.90474017	         24.90782339	         16.35305296	        -44.09669884	         -7.94988413	         10.92068346	         10.53340259	          9.83867265	
          0.25902737	        -15.16106987	          0.34675570	          0.90438616	         26.23393428	         15.45371802	        -43.60570872	         -7.75883536	         11.90266001	         10.72799471	          9.78053310	
          0.26862098	        -15.15893366	          0.35850123	          0.90393941	         27.52524165	         14.57015535	        -42.95908200	         -7.59790398	         12.79503036	         10.89591516	          9.72371197	
          0.27821458	        -15.15644283	          0.37027340	          0.90340901	         28.77371734	         13.70329645	        -42.16136926	         -7.46913258	         13.58756356	         11.03421533	          9.66890189	
          0.28780819	        -15.15386181	          0.38207881	          0.90280298	         29.97317984	         12.85400730	        -41.21689788	         -7.37359805	         14.27417379	         11.14176337	          9.61658658	
          0.29740180	        -15.15143030	          0.39392376	          0.90212781	         31.11791903	         12.02299153	        -40.13236612	         -7.31295657	         14.85325696	         11.21929072	          9.56720792	
          0.30699540	        -15.14937038	          0.40581261	          0.90138880	         32.20497424	         11.21056770	        -38.91327651	         -7.28812237	         15.32763675	         11.26962897	          9.52095658	
          0.31658901	        -15.14789407	          0.41774896	          0.90058968	         33.23299350	         10.41662354	        -37.56460607	         -7.29949173	         15.70358808	         11.29725031	          9.47789779	
          0.32618262	        -15.14721980	          0.42973619	          0.89973235	         34.20137519	          9.64090733	        -36.09174840	         -7.34707581	         15.98947850	         11.30746371	          9.43801170	
          0.33577622	        -15.14762993	          0.44177883	          0.89881690	         35.10862475	          8.88280747	        -34.50222930	         -7.43031188	         16.19445153	         11.30551310	          9.40137411	
          0.34536983	        -15.14951518	          0.45388337	          0.89784215	         35.95127696	          8.14127394	        -32.80378246	         -7.54813907	         16.32762792	         11.29498362	          9.36829400	
          0.35496343	        -15.15319589	          0.46605796	          0.89680695	         36.72476002	          7.41595734	        -31.00787690	         -7.70085571	         16.39779084	         11.27667622	          9.33915761	
          0.36455704	        -15.15873933	          0.47831460	          0.89571397	         37.42240158	          6.70775724	        -29.14069405	         -7.89214507	         16.41308360	         11.24897095	          9.31455431	
          0.37415065	        -15.16616982	          0.49067158	          0.89457567	         38.03127687	          6.01871327	        -27.23642249	         -8.12826704	         16.38079472	         11.20581040	          9.29578765	
          0.38374425	        -15.17550391	          0.50315045	          0.89341379	         38.53558985	          5.35199445	        -25.32728411	         -8.41637059	         16.30731832	         11.13474646	          9.28458155	
          0.39333786	        -15.18642089	          0.51577005	          0.89225088	         38.92588087	          4.71202439	        -23.44115506	         -8.76495923	         16.19804521	         11.01948459	          9.28212686	
          0.40293147	        -15.19812346	          0.52854497	          0.89110488	         39.20198851	          4.10407708	        -21.59990418	         -9.18390793	         16.05710428	         10.84349607	          9.28882945	
          0.41252507	        -15.20940108	          0.54148807	          0.88999009	         39.37080759	          3.53342492	        -19.82518437	         -9.68350229	         15.88710146	         10.59251081	          9.30461759	
          0.42211868	        -15.21903656	          0.55461320	          0.88891864	         39.43955721	          3.00493887	        -18.13181920	        -10.27339484	         15.68923706	         10.25369442	          9.32958408	
          0.43171229	        -15.22588701	          0.56793483	          0.88789971	         39.41504609	          2.52305821	        -16.53156097	        -10.96216393	         15.46340949	          9.81490766	          9.36396644	
          0.44130589	        -15.22869916	          0.58146711	          0.88693856	         39.30486688	          2.09240726	        -15.04144608	        -11.75881976	         15.20833553	          9.26530585	          9.40790283	
          0.45089950	        -15.22621082	          0.59522447	          0.88603625	         39.11406251	          1.71850896	        -13.67603012	        -12.67365493	         14.92199238	          8.59391184	          9.46168576	
          0.46049310	        -15.21701720	          0.60922048	          0.88518850	         38.84741984	          1.40727001	        -12.45522836	        -13.71759623	         14.60149176	          7.79030008	          9.52556739	
          0.47008671	        -15.19956160	          0.62346690	          0.88438416	         38.51029203	          1.16434276	        -11.40782282	        -14.90084320	         14.24302996	          6.84698048	          9.59969873	
          0.47968032	        -15.17240489	          0.63797482	          0.88360415	         38.10300098	          0.99451040	        -10.56466133	        -16.23267787	         13.84224218	          5.76398031	          9.68467141	
